# xmcd
#
# Track frame offsets:
#	150
#	31808
#	36780
#	134611
#	206513
#	260273
#	301731
#
# Disc length: 4425 seconds
#
# Revision: 1
# Processed by: cddbd v1.5.2PL0 Copyright (c) Steve Scherf et al.
# Submitted via: audiograbber 1.83.01
#
DISCID=56114707
DTITLE=Grateful Dead - 73-03-21 Utica Memorial Auditorium, Utica NY
DYEAR=1900
DGENRE=
TTITLE0=Me and Bobby McGee
TTITLE1=WRS Prelude
TTITLE2=Dark Star
TTITLE3=Eyes Of The World
TTITLE4=Wharf Rat
TTITLE5=Sugar Magnolia
TTITLE6=Casey Jones
EXTD=
EXTT0=
EXTT1=
EXTT2=
EXTT3=
EXTT4=
EXTT5=
EXTT6=
PLAYORDER=
